HIERARCHY
ROOT hip
{
	OFFSET 0.000000 0.000000 0.000000 
	CHANNELS 6 Xposition Yposition Zposition Xrotation Zrotation Yrotation
	JOINT abdomen
	{
		OFFSET 0.000000 3.402643 0.000000 
		CHANNELS 3 Xrotation Zrotation Yrotation
		JOINT chest
		{
			OFFSET 0.000000 8.438565 -0.680529 
			CHANNELS 3 Xrotation Zrotation Yrotation
			JOINT neck
			{
				OFFSET 0.000000 10.207942 -0.272212 
				CHANNELS 3 Xrotation Zrotation Yrotation
				JOINT head
				{
					OFFSET 0.000000 3.130431 0.000000 
					CHANNELS 3 Xrotation Zrotation Yrotation
					End Site
					{
						OFFSET 0.000000 3.130435 0.000000 
					}
				}
			}
			JOINT lCollar
			{
				OFFSET 3.470700 6.669187 -0.816635 
				CHANNELS 3 Yrotation Zrotation Xrotation
				JOINT lShldr
				{
					OFFSET 3.198488 0.000000 0.000000 
					CHANNELS 3 Zrotation Yrotation Xrotation
					JOINT lForeArm
					{
						OFFSET 10.139888 0.000000 0.000000 
						CHANNELS 3 Yrotation Zrotation Xrotation
						JOINT lHand
						{
							OFFSET 8.370511 0.000000 0.000000 
							CHANNELS 3 Zrotation Yrotation Xrotation
							End Site
							{
								OFFSET 4.083176 0.000000 0.000000 
							}
						}
					}
				}
			}
			JOINT rCollar
			{
				OFFSET -3.470700 6.669187 -0.816635 
				CHANNELS 3 Yrotation Zrotation Xrotation
				JOINT rShldr
				{
					OFFSET -3.198488 0.000000 0.000000 
					CHANNELS 3 Zrotation Yrotation Xrotation
					JOINT rForeArm
					{
						OFFSET -10.139888 0.000000 0.000000 
						CHANNELS 3 Yrotation Zrotation Xrotation
						JOINT rHand
						{
							OFFSET -8.370511 0.000000 0.000000 
							CHANNELS 3 Zrotation Yrotation Xrotation
							End Site
							{
								OFFSET -4.083176 0.000000 0.000000 
							}
						}
					}
				}
			}
		}
	}
	JOINT lThigh
	{
		OFFSET 5.308129 -1.633274 1.361059 
		CHANNELS 3 Xrotation Zrotation Yrotation
		JOINT lShin
		{
			OFFSET -2.041588 -20.007561 0.000000 
			CHANNELS 3 Xrotation Zrotation Yrotation
			JOINT lFoot
			{
				OFFSET 0.000000 -19.190928 -1.224953 
				CHANNELS 3 Xrotation Yrotation Zrotation
				End Site
				{
					OFFSET 0.000000 -2.449906 4.627600 
				}
			}
		}
	}
	JOINT rThigh
	{
		OFFSET -5.308129 -1.633274 1.361059 
		CHANNELS 3 Xrotation Zrotation Yrotation
		JOINT rShin
		{
			OFFSET 2.041588 -20.007561 0.000000 
			CHANNELS 3 Xrotation Zrotation Yrotation
			JOINT rFoot
			{
				OFFSET 0.000000 -19.190928 -1.224953 
				CHANNELS 3 Xrotation Yrotation Zrotation
				End Site
				{
					OFFSET 0.000000 -2.449906 4.627600 
				}
			}
		}
	}
}
MOTION
Frames: 13
Frame Time: 0.016667
0.507876 25.214163 3.603643 -12.470978 -4.546262 -4.545604 59.186245 -2.001899 6.972834 10.323983 -0.058569 -1.347665 0.105009 3.660003 -0.158479 5.679835 -3.671365 8.386237 -18.348608 -0.919280 -0.045024 -63.751320 13.767459 -33.132286 -13.955040 -5.000000 45.000000 51.008209 -30.000000 4.185513 14.286021 -4.905427 0.246868 69.988045 -14.030261 -33.954487 24.766333 5.000000 45.000000 -42.083389 15.667837 -16.900095 -61.937328 15.516252 -5.963481 29.622999 -5.356789 -3.341879 -15.192079 21.223270 -7.448496 -60.841633 13.077153 -25.860569 117.064445 -6.853910 11.681607 -43.372967 -10.886002 -16.787865 
0.549616 25.758314 3.479207 -11.143596 -4.425411 -5.161994 59.166424 -1.919561 6.550527 10.605469 0.000000 -1.542969 0.281331 3.913971 -0.177183 4.845592 -3.631886 9.442466 -18.769264 -1.572704 -0.078680 -63.382252 12.785218 -32.904846 -12.419127 -5.000000 45.000000 47.449192 -30.000000 7.127066 14.155530 -3.988667 0.199452 68.822098 -12.131900 -32.493168 24.961321 5.000000 43.780128 -41.991463 16.025890 -16.283720 -61.618847 15.985554 -5.046693 28.088861 -5.278602 -3.099583 -15.839019 21.131371 -7.008124 -61.279541 13.300244 -24.886442 115.436142 -6.766157 12.307803 -42.788910 -11.083340 -16.531908 
0.605993 26.360180 3.370382 -9.782779 -4.159316 -5.669813 58.943394 -1.788731 5.931076 10.790346 0.019520 -1.826172 0.517628 4.180512 -0.177384 4.253266 -3.638557 10.568135 -19.268114 -2.060335 -0.104141 -63.237396 11.851011 -32.682392 -10.755022 -5.000000 45.000000 44.453342 -30.000000 9.511781 13.986367 -2.925609 0.144406 67.710861 -9.900246 -30.698940 24.784645 5.000000 42.108181 -41.642185 16.588108 -15.529765 -61.352585 16.200054 -4.611082 26.639278 -5.430246 -2.955735 -16.774290 21.684828 -6.121356 -61.525490 13.223158 -24.110531 113.684036 -6.854210 13.404347 -42.283779 -11.535617 -16.481588 
0.682878 27.003689 3.262257 -8.428371 -3.883717 -6.166602 58.730583 -1.676615 5.319881 10.984877 0.039036 -2.109375 0.744367 4.437397 -0.176813 3.652665 -3.634125 11.693169 -19.776937 -2.547965 -0.129326 -63.099766 10.924771 -32.470184 -9.114728 -5.000000 45.000000 41.812500 -30.000000 11.626529 13.818231 -1.862548 0.088994 66.683090 -7.631991 -28.968868 24.517248 5.000000 40.432404 -41.284920 17.130423 -14.766380 -61.090221 16.434761 -4.165003 25.183073 -5.566767 -2.873488 -17.673004 22.240843 -5.256990 -61.771492 13.154552 -23.330744 111.912933 -6.903935 14.480879 -41.858372 -12.047121 -16.474234 
0.791144 27.688999 3.141533 -7.300345 -3.808664 -7.086402 58.806240 -1.633748 5.171054 11.081768 0.058552 -2.148437 0.517681 4.384741 -0.198399 2.900330 -3.886367 12.754430 -19.895880 -3.220893 -0.164066 -63.019157 9.413945 -31.708910 -7.976163 -5.000000 45.000000 39.234169 -30.000000 12.839045 13.915036 -0.943470 0.051100 65.499908 -5.380042 -26.930149 23.784655 5.000000 38.809311 -41.245766 17.353630 -14.329564 -61.053772 16.835434 -4.266611 24.694677 -5.552768 -2.846232 -18.156948 21.749136 -4.576501 -61.608360 13.271188 -22.235821 109.804871 -6.682599 15.467571 -40.469681 -12.037679 -16.090771 
0.918319 28.406687 3.020565 -6.165584 -3.723142 -8.015299 58.872780 -1.586115 5.025358 11.188398 0.078067 -2.187498 0.301575 4.323888 -0.209637 2.160265 -4.125575 13.815249 -20.025034 -3.903572 -0.199285 -62.961716 7.901884 -30.958471 -6.803096 -5.000000 45.000000 36.868355 -30.000000 13.865011 14.002526 -0.036477 0.004220 64.401741 -3.087894 -24.938337 22.945879 5.000000 37.168434 -41.206318 17.563480 -13.893513 -61.029579 17.215166 -4.360415 24.228090 -5.533482 -2.790737 -18.584278 21.255203 -3.910882 -61.425449 13.397716 -21.130957 107.651665 -6.426655 16.416231 -39.142365 -12.017178 -15.717515 
1.050638 29.140917 2.910981 -5.144826 -3.569945 -8.894857 59.012062 -1.507912 4.906985 11.267685 0.048793 -2.119140 0.025666 4.211837 -0.232088 1.453313 -4.409836 14.800537 -20.144646 -4.537488 -0.231964 -62.858326 6.507410 -30.203547 -6.038554 -5.000000 45.000000 34.894310 -30.000000 14.427038 14.217681 0.831506 -0.040645 63.212624 -1.071199 -23.098103 22.148264 5.000000 35.703945 -41.430569 17.364204 -13.504004 -61.289131 17.487803 -4.848892 24.485203 -5.454346 -2.798725 -18.221893 20.021856 -3.860105 -61.045929 13.398234 -19.919395 105.443176 -6.034955 17.394896 -37.997108 -11.897810 -15.624874 
1.188133 29.896317 2.813334 -4.238058 -3.369075 -9.714778 59.205570 -1.400192 4.831532 11.348704 -0.029278 -1.953130 -0.288893 4.032196 -0.244330 0.795946 -4.748511 15.699403 -20.264532 -5.151897 -0.264486 -62.697071 5.255144 -29.459761 -5.738563 -5.000000 44.458523 33.235394 -30.000000 14.580700 14.531129 1.670230 -0.083987 61.891678 0.658851 -21.392731 21.427809 5.000000 34.413246 -41.924461 16.755016 -13.163078 -61.854912 17.605064 -5.725671 25.489647 -5.289907 -2.795939 -17.084135 18.079178 -4.441729 -60.489574 13.280560 -18.617115 103.131981 -5.557192 18.364935 -37.083744 -11.688777 -15.784329 
1.348261 30.663687 2.722978 -3.369308 -3.111243 -10.494168 59.406963 -1.288511 4.724821 11.429387 -0.107361 -1.767593 -0.613145 3.871864 -0.259506 0.187791 -5.100843 16.629597 -20.374952 -5.756551 -0.295702 -62.547901 3.951559 -28.664515 -5.448659 -5.000000 43.867546 31.651287 -30.000000 14.498432 14.845120 2.469944 -0.125718 60.651997 2.419887 -19.721285 20.632307 5.000000 33.120575 -42.418930 16.056965 -12.859582 -62.438938 17.616402 -6.657609 26.707125 -5.171998 -2.886265 -15.825788 16.188034 -5.015815 -59.914646 13.075881 -17.296659 100.875313 -5.038634 19.308529 -36.133625 -11.477987 -15.856701 
1.547532 31.440901 2.639570 -2.733944 -2.597257 -11.076397 59.710758 -1.164037 4.473108 11.539261 -0.195219 -1.552757 -1.035281 3.788775 -0.287014 -0.146269 -5.601672 17.723215 -20.465784 -6.292938 -0.323366 -62.331398 2.480690 -27.535522 -5.347947 -5.000000 43.555565 29.813486 -30.000000 13.773329 15.119991 3.045346 -0.155524 59.610123 4.182136 -18.065575 19.697302 5.000000 31.867128 -42.841259 14.830931 -12.813411 -63.108501 17.205828 -8.104851 29.023851 -5.367359 -3.329972 -13.540959 14.252586 -6.015779 -59.153866 12.518764 -15.759243 98.614784 -4.425224 20.243952 -35.199371 -11.372048 -15.453885 
1.764702 32.227993 2.563270 -2.147554 -2.047058 -11.619165 60.015293 -1.022682 4.215286 11.658403 -0.283090 -1.337919 -1.476336 3.726459 -0.307154 -0.444326 -6.120762 18.851200 -20.556824 -6.819570 -0.351658 -62.146008 0.964454 -26.351828 -5.272696 -5.000000 43.309647 27.947002 -30.000000 12.798411 15.385209 3.562232 -0.182286 58.652493 5.973471 -16.438320 18.698969 5.000000 30.611603 -43.238422 13.497499 -12.811828 -63.773380 16.688578 -9.647898 31.551998 -5.601586 -3.802224 -11.142620 12.355382 -6.967150 -58.377663 11.855095 -14.221980 96.370323 -3.786672 21.135977 -34.215771 -11.274137 -14.960634 
1.956306 33.017952 2.490758 -1.570260 -1.508518 -12.133379 60.289478 -0.881142 3.969520 11.709271 -0.390496 -1.123146 -1.819463 3.625519 -0.321457 -0.653210 -6.606908 20.099127 -20.637896 -7.277933 -0.375328 -61.943027 -0.362864 -25.161358 -5.518663 -5.000000 42.773304 25.834789 -30.000000 11.873417 15.728650 4.040108 -0.207014 57.825264 7.492214 -15.010056 18.190506 5.000000 29.226765 -43.450459 11.712190 -12.601897 -64.343513 16.113050 -10.766612 34.420464 -5.802141 -4.350742 -9.351436 10.644728 -8.390501 -57.571495 11.346726 -12.479482 94.014145 -2.949489 21.804024 -33.350880 -11.213632 -14.420505 
2.126582 33.812546 2.422179 -1.014095 -1.010156 -12.619327 60.535973 -0.716961 3.752357 11.682183 -0.517433 -0.937621 -2.044460 3.477763 -0.318826 -0.764832 -7.040561 21.448557 -20.718689 -7.668029 -0.395453 -61.723129 -1.504516 -23.964773 -6.098881 -5.000000 41.975502 23.507269 -29.727554 10.926260 16.140421 4.459467 -0.228702 57.136078 8.746794 -13.770415 18.183187 5.000000 27.757160 -43.501694 9.476878 -12.205427 -64.852570 15.507357 -11.452492 37.702415 -5.913804 -5.013199 -8.075457 9.157732 -10.340928 -56.739159 10.955755 -10.555648 91.547264 -1.950665 22.229635 -32.503357 -11.143625 -13.856641 
